<?xml version="1.0" encoding="UTF-8"?>
<svg id="_レイヤー_1" data-name="レイヤー_1" xmlns="http://www.w3.org/2000/svg" version="1.1" viewBox="0 0 683.34 466.71">
  <!-- Generator: Adobe Illustrator 29.8.4, SVG Export Plug-In . SVG Version: 2.1.1 Build 6)  -->
  <defs>
    <style>
      path {
        fill: #ebae9f;
      }
    </style>
  </defs>
  <path d="M244.65,417.05c-1.26-1.05-2.35-1.83-3.31-2.51-1.63-1.16-2.92-2.08-4.97-4.26-1.33-1.41-2.29-3.13-2.87-4.15-.58-1.03-1.18-2.1-2.5-2.96-2.78-1.81-4.92-1.08-12.02,1.33-3.74,1.27-8.24,2.88-11.86,4.17-2.32.83-4.23,1.51-5.22,1.85-55.35,18.73-108.74,25.48-158.7,20.07l-29.28-5.5c-.68-.13-1.37-.14-2.05-.03-5.1.81-9.35,4.19-11.08,8.8-1.6,4.26-.74,8.97,2.29,12.62,4.99,5.99,28.92,12.1,33.67,13.27,18.99,4.65,38.65,6.98,58.82,6.98,15.69,0,31.68-1.41,47.89-4.23,34.35-5.98,68.07-17.94,100.23-35.56,1.74-.95,2.9-2.71,3.09-4.68.19-1.98-.61-3.92-2.13-5.19Z"/>
  <path d="M448.31,112.37c-20.77,4.19-35.26,16.73-40.81,35.3-5.93,19.88-.02,43.01,14.72,57.56,9.5,9.38,21.37,14.19,34.46,14.19,5.87,0,11.99-.97,18.25-2.92,32.81-10.24,41.18-40.55,35.08-64.38-6.13-23.91-28.04-46.55-61.71-39.76ZM475.01,183.54c-10.06,8.96-22.19,6.87-29.52,2.36-7.46-4.59-14.19-14.11-10.74-27.07,1.88-7.06,9.44-15.02,15.85-16.71,15.18-3.98,25.61,4,29.92,12.05,4.09,7.63,5.11,19.91-5.51,29.37Z"/>
  <path d="M300.97,269.66c8.69,5.88,18.37,8.79,27.99,8.79,11.4,0,22.74-4.08,32.3-12.16,17.96-15.17,22.94-38.78,12.67-60.15-8.43-17.55-28.5-32.98-54.35-27.9-17.02,3.35-33.15,17.18-38.35,32.88-7.43,22.43.32,45.41,19.73,58.54ZM323.68,206.85c2.39-.6,4.56-.86,6.54-.86,6.87,0,11.33,3.15,14.03,6.18,5.68,6.38,7.51,16.52,4.44,24.66-1.85,4.91-6.24,11.03-16.61,12.3-14.98,1.83-22.27-8.23-23.97-17.4-1.85-9.98,2.24-21.54,15.57-24.88Z"/>
  <path d="M275.24,322.11c-17.02,3.35-33.15,17.18-38.35,32.88-7.42,22.43.32,45.41,19.73,58.54,8.69,5.88,18.37,8.79,27.99,8.79,11.4,0,22.74-4.08,32.3-12.16,17.96-15.17,22.94-38.78,12.67-60.16-8.43-17.55-28.5-32.99-54.35-27.9ZM263.77,375.6c-1.85-9.98,2.24-21.54,15.57-24.88,10.7-2.68,17.09,1.42,20.57,5.32,5.68,6.38,7.51,16.52,4.44,24.66-1.85,4.91-6.24,11.03-16.61,12.3-14.97,1.84-22.27-8.23-23.97-17.4Z"/>
  <path d="M680.8,5.16C678.02,1.76,673.42.02,667.1,0c-.08,0-.16,0-.24,0-6.59,0-16.12.97-28.31,2.89-49.24,7.74-100.2,39.01-129.81,79.67-.1.14-10.6,14.9-11.57,19.17-1.47,6.46.69,12.65,5.65,16.15,2.57,1.82,5.63,2.72,8.77,2.72s6.52-.95,9.5-2.84c.46-.29.88-.65,1.25-1.06,3.42-3.8,6.83-7.7,10.12-11.47,10.5-12,21.35-24.42,33.6-34.81,25.7-21.83,55.32-36.02,90.55-43.4.87-.18,2.67-.34,4.41-.5,8.51-.77,20.17-1.82,22.01-10.89,1.04-5.13-.63-8.54-2.22-10.49Z"/>
  <path d="M442.39,229.46c-4.63-1.88-10.07-1.27-14.19,1.61-3.48,2.43-7.76,9.32-14.39,20.37-2.08,3.46-4.04,6.74-5.18,8.36-14.04,20.02-26.05,35.09-37.78,47.44-4.5,4.73-9.68,9.31-14.7,13.74-4.89,4.32-9.95,8.79-14.45,13.46-.87.9-1.98,2.14-2.83,3.69-1.03,1.87-.99,4.15.11,5.98,2.21,3.68,3.63,7.72,4.23,12.03l1.1,7.57c.31,2.11,1.71,3.9,3.68,4.7.73.3,1.49.44,2.26.44,1.3,0,2.59-.42,3.66-1.24,26.18-20.14,62.45-53.84,86.62-100.07l.42-.8c7.93-15.11,10.53-22.52,9.62-27.36-.86-4.54-3.83-8.15-8.16-9.91Z"/>
</svg>
