<?xml version="1.0" encoding="utf-8"?>
<!-- Generator: Adobe Illustrator 16.0.0, SVG Export Plug-In . SVG Version: 6.00 Build 0)  -->
<!DOCTYPE svg PUBLIC "-//W3C//DTD SVG 1.1//EN" "http://www.w3.org/Graphics/SVG/1.1/DTD/svg11.dtd">
<svg version="1.1" id="レイヤー_1" xmlns="http://www.w3.org/2000/svg" xmlns:xlink="http://www.w3.org/1999/xlink" x="0px"
	 y="0px" width="818.321px" height="467.731px" viewBox="0 0 818.321 467.731" enable-background="new 0 0 818.321 467.731"
	 xml:space="preserve">
<path fill="#ebae9f" fill-rule="evenodd" clip-rule="evenodd" d="M188.223,322.835c-5.525-6.85-11.248-13.55-16.542-20.573
	c-29.136-38.653-47.886-81.803-55.089-129.729c-2.904-19.32-3.886-38.784-0.557-58.237c1.669-9.752,7.789-15.137,17.808-15.455
	c19.894-0.632,39.106,3.604,58.137,8.572c39.404,10.288,76.76,25.56,111.483,47.012c0.709,0.438,1.492,0.773,2.144,1.281
	c2.931,2.285,4.331,1.548,5.423-2.008c4.502-14.662,9.705-29.09,16.198-42.996c15.523-33.243,34.99-63.95,59.177-91.628
	c4.064-4.652,8.472-8.94,12.704-13.411c6.954-7.345,16.535-7.536,23.957-0.628c37.876,35.256,64.54,77.656,81.035,126.615
	c1.294,3.842,0.757,5.801-3.008,7.267c-4.516,1.759-8.666,4.321-12.543,7.202c-3.643,2.707-5.228,2.388-6.647-2.329
	c-5.684-18.885-13.403-36.941-23.35-54.009c-11.877-20.379-25.625-39.323-42.309-56.104c-3.646-3.667-5.849-3.356-9.178,0.325
	c-23.218,25.677-41.534,54.536-56.396,85.696c-6.972,14.617-12.579,29.726-17.515,45.15c-1.813,5.665-0.527,8.642,3.964,12.066
	c25.105,19.141,46.874,41.484,63.812,68.285c19.115,30.249,30.356,62.896,29.637,99.061c-0.256,12.894-2.144,25.535-7.143,37.575
	c-2.007,4.835-4.657,9.217-8.215,13.029c-9.302,9.969-21.199,11.949-34.203,5.814c-12.505-5.899-22.309-15.165-30.999-25.571
	c-30.484-36.507-46.283-78.874-50.023-126.078c-1.643-20.732-0.386-41.259,3.088-61.681c0.684-4.017-0.149-6.313-3.743-8.516
	c-43.971-26.946-91.254-45.122-142.054-54.072c-4.091-0.721-8.254-1.041-12.387-1.516c-3.421-0.393-5.123,0.9-5.556,4.59
	c-1.922,16.414-0.105,32.624,2.731,48.711c10.958,62.125,41.017,113.557,88.26,154.943c34.399,30.137,73.843,51.67,117.173,66.136
	c6.912,2.307,14.147,3.795,18.438,10.739c1.242,2.01,3.801,2.4,6.257,2.549c8.033,0.484,10.347,2.248,11.958,8.727
	c1.486,5.98-0.738,11.395-6.314,14.979c-12.292,7.904-25.703,13.377-39.599,17.638c-44.471,13.638-89.623,14.191-134.972,5.796
	c-61.977-11.475-119.092-34.78-170.251-71.98c-10.55-7.672-20.178-16.387-28.312-26.628c-6.859-8.638-6.209-16.793,1.899-24.293
	c7.303-6.755,16.398-10.133,25.725-12.794c17.369-4.956,35.17-7.361,53.171-8.546c11.627-0.766,23.239-1.637,34.903-1.713
	c11.679-0.075,23.262,1.389,34.903,1.842c1.549,0.06,2.929,0.518,4.177,1.445c8.435,6.272,18.815,5.725,28.188,8.714
	C187.854,323.679,188.038,323.257,188.223,322.835z M29.72,349.227c0.28,0.685,0.323,1.065,0.536,1.269
	c1.809,1.724,3.595,3.478,5.487,5.106c22.782,19.612,48.431,34.801,75.479,47.527c37.002,17.409,75.696,29.385,116.465,34.329
	c37.453,4.543,74.122,1.926,109.848-10.741c3.143-1.114,6.225-2.398,10.392-4.014c-2.219-0.823-3.127-1.197-4.059-1.5
	c-34.617-11.27-66.771-27.508-96.977-47.765c-7.468-5.008-14.126-11.22-22.154-15.349c-29.697-15.271-61.835-20.387-94.683-21.73
	c-24.521-1.004-48.942,1.05-73.153,5.116C47.585,343.04,38.34,345.061,29.72,349.227z M323.614,232.109
	c-0.047,30.895,5.797,59.118,18.679,87.175c9.456,20.595,21.354,39.642,39.03,54.305c13.158,10.915,18.166,9.142,22.768-7.607
	c4.782-17.405,4.047-35.014,0.456-52.455c-9.884-48.009-39.098-83.315-75.525-113.771c-2.096-1.752-3.275-1.912-3.547,1.474
	C324.65,211.513,323.419,221.767,323.614,232.109z"/>
<path fill="#ebae9f" fill-rule="evenodd" clip-rule="evenodd" d="M450.206,428.725c17.776,6.289,35.057,9.754,52.563,12.079
	c40.706,5.408,80.799,1.389,120.337-8.824c47.788-12.343,91.787-32.886,131.514-62.299c11.666-8.637,22.591-18.161,32.349-28.961
	c4.052-4.484,3.837-5.939-1.858-8.006c-14.498-5.262-29.6-7.753-44.873-9.35c-35.377-3.7-70.486-1.727-105.376,4.957
	c-0.925,0.178-1.952,0.613-2.836-0.348c-0.331-1.413,0.884-2.013,1.651-2.78c6.959-6.963,13.194-14.567,19.52-22.087
	c1.352-1.606,2.713-2.809,4.889-3.069c23.365-2.805,46.771-4.009,70.293-2.333c18.138,1.292,36.153,3.195,53.727,8.2
	c8.855,2.521,17.493,5.515,25.308,10.464c11.711,7.417,14.074,18.244,6.697,29.96c-10.022,15.917-23.806,28.303-38.458,39.605
	c-54.888,42.343-117.083,67.842-185.426,78.085c-50.878,7.625-101.02,3.629-149.87-13.135c-9.926-3.406-19.492-7.789-28.771-12.719
	c-5.522-2.936-8.284-8.727-7.305-14.653c0.945-5.718,5.35-10.536,11.031-11.53c33.722-5.904,63.977-20.295,92.89-37.92
	c39.407-24.021,73.104-54.594,101.774-90.592c29.88-37.52,53.094-78.641,64.529-125.705c1.216-5.007,2.442-10.036,2.679-15.231
	c0.322-7.089,0.019-7.441-6.921-7.485c-19.449-0.125-38.499,3.055-57.368,7.318c-40.354,9.118-78.104,24.636-112.896,47.073
	c-26.7,17.218-50.395,37.711-67.932,64.586c-2.122,3.251-3.105,2.59-4.527-0.336c-2.771-5.7-5.838-11.266-9.618-16.35
	c-1.986-2.673-0.439-4.24,0.971-6.104c19.14-25.284,42.792-45.559,69.317-62.696c28.434-18.37,58.71-32.891,90.955-43.118
	c26.294-8.339,53.242-13.514,80.87-14.836c7.159-0.343,14.267-0.501,21.428,0.313c13.98,1.589,20.979,8.881,21.226,22.911
	c0.401,22.777-6.079,44.174-14.152,65.032c-16.955,43.809-41.756,82.853-73.027,117.885c-25.788,28.889-54.763,53.992-87.443,74.777
	c-23.284,14.81-47.797,27.106-74.054,35.779C453.077,427.593,452.171,427.978,450.206,428.725z"/>
<path fill-rule="evenodd" clip-rule="evenodd" fill="none" d="M29.72,349.227c8.62-4.166,17.865-6.187,27.182-7.751
	c24.211-4.066,48.633-6.12,73.153-5.116c32.848,1.344,64.985,6.459,94.683,21.73c8.028,4.129,14.687,10.341,22.154,15.349
	c30.205,20.257,62.359,36.495,96.977,47.765c0.932,0.303,1.84,0.677,4.059,1.5c-4.167,1.615-7.249,2.899-10.392,4.014
	c-35.726,12.667-72.395,15.284-109.848,10.741c-40.769-4.944-79.463-16.92-116.465-34.329
	c-27.049-12.727-52.697-27.915-75.479-47.527c-1.893-1.629-3.679-3.383-5.487-5.106C30.043,350.292,30,349.911,29.72,349.227z"/>
<path fill-rule="evenodd" clip-rule="evenodd" fill="none" d="M323.621,232.11c-0.202-10.344,1.029-20.598,1.854-30.881
	c0.271-3.386,1.451-3.226,3.547-1.474c36.428,30.455,65.642,65.762,75.525,113.771c3.591,17.441,4.326,35.05-0.456,52.455
	c-4.602,16.749-9.609,18.522-22.768,7.607c-17.676-14.663-29.574-33.71-39.03-54.305
	C329.411,291.228,323.567,263.004,323.621,232.11z"/>
</svg>
