<?xml version="1.0" encoding="UTF-8"?>
<svg id="_レイヤー_1" xmlns="http://www.w3.org/2000/svg" version="1.1" viewBox="0 0 500 500" fill="#FFFFFF">
  <!-- Generator: Adobe Illustrator 29.8.4, SVG Export Plug-In . SVG Version: 2.1.1 Build 6)  -->
  <path d="M133.82,154.5l-18.41,82.27h-47.32c-9.91,0-17.92,8.08-17.92,17.91v46.68c-4.31,3.25-7.18,8.44-7.18,14.32v21.01h41.74v-.05c0-30.31,24.66-54.97,55.02-54.97s54.95,24.66,54.95,54.97v.05h117.77v-.05c0-30.31,24.66-54.97,55.02-54.97s54.97,24.66,54.97,54.97v.05h34.56v-82c0-9.83-8.07-17.91-17.87-17.91h-11.93l-18.43-82.27c-4.3-19.26-23.94-35.02-43.67-35.02h-187.62c-19.75,0-39.37,15.76-43.69,35.02h0ZM299.71,142.83h65.41c8.84,0,19.01,8.13,20.95,16.75l17.26,77.19h-103.62v-93.94h0ZM277.57,236.77h-138.27l17.23-77.19c1.94-8.62,12.11-16.75,20.96-16.75h100.07v93.94h0Z"/>
  <path d="M139.68,292.68c-24.25,0-43.85,19.74-43.85,44s19.6,43.85,43.85,43.85,43.98-19.6,43.98-43.85-19.73-44-43.98-44h0Z"/>
  <path d="M367.47,292.68c-24.12,0-43.87,19.74-43.87,44s19.74,43.85,43.87,43.85,43.99-19.6,43.99-43.85-19.75-44-43.99-44h0Z"/>
</svg>