<?xml version="1.0" encoding="UTF-8"?>
<svg id="_レイヤー_1" xmlns="http://www.w3.org/2000/svg" version="1.1" viewBox="0 0 770.03 770.03">
  <!-- Generator: Adobe Illustrator 29.8.4, SVG Export Plug-In . SVG Version: 2.1.1 Build 6)  -->
  <defs>
    <style>
      .st0 {
        fill: #ebae9f;
      }
    </style>
  </defs>
  <path class="st0" d="M734.17,209.95c-.15-.03-.31-.05-.46-.06-106.64-10.5-214.97-22.44-319.73-33.99-97.93-10.8-199.19-21.97-298.89-31.93-3.07-.31-6.84-.78-10.84-1.28-13.16-1.65-28.07-3.51-37.53-2.37,0,0,0,0,0,0-16.72,2.04-30.04,14.66-33.13,31.4-.04.22-.07.44-.09.66-4.12,47.4-9.08,95.57-13.87,142.15C12.32,385.39,4.77,458.65.01,530.92c-.03.5-.01,1,.07,1.5,4.52,29.28,34.54,32.85,50.66,34.76,36.18,4.3,73.1,7.65,108.81,10.88,23.63,2.14,48.06,4.35,72,6.82,37.31,3.85,75.26,7.86,111.95,11.73,112.01,11.83,227.83,24.07,341.93,33.44.19.02.38.02.56.02s.39,0,.58-.02c32.43-2.74,40.4-26.12,43.91-48.63,3.96-25.38,6.45-52.05,8.86-77.85,1.57-16.79,3.18-34.15,5.18-50.8,5.04-41.96,10.54-84.6,15.85-125.85,3.15-24.45,6.41-49.73,9.54-74.6.02-.17.04-.35.05-.52,1.12-22.95-11.59-37.81-35.8-41.86ZM607.11,588.86c-96.73-9.17-195.02-19.51-290.07-29.5-88-9.26-179-18.83-268.58-27.45-10.16-1.48-11.82-3.22-12.15-9.1,5.01-45.16,9.16-91.13,13.18-135.59,2.37-26.26,4.83-53.41,7.43-80.06,1.22-12.51,2.61-25.24,3.96-37.56,2.08-19.02,4.21-38.55,5.81-58.03l175.43,159.78-197.65,126.83c-.33.21-.64.45-.93.71-6.86,6.27-7.85,15.5-2.4,22.43,4.82,6.13,14.79,9.39,23.82,3.39,25.39-16.18,51.06-32.84,75.88-48.95,30.83-20.01,62.71-40.7,94.3-60.64,1.88-1.19,3.76-2.38,5.65-3.57,8.89-5.63,18.04-11.43,27.21-16.72,7.07,5.75,13.97,12.02,20.68,18.11,9.85,8.94,20.03,18.19,31.09,26.15,28.52,20.55,44.25,22.67,76.51,10.32,16.5-6.32,31.97-15.03,46.93-23.46,7.4-4.17,15.02-8.46,22.65-12.39l191.68,165.21c.15.13.31.26.48.38,7.37,5.29,21.69,7.96,29.41-.78.1-.11.19-.22.28-.34,2.77-3.33,4.17-8.15,3.77-12.97-.39-4.71-2.41-8.75-5.62-11.35-48.61-40.12-97.13-82.04-144.05-122.58-13.65-11.79-27.69-23.92-41.64-35.94l229.88-124.87c-1.87,14.78-3.75,29.57-5.63,44.35-7.04,55.34-14.31,112.57-21.04,168.9-1.49,12.51-2.7,25.36-3.86,37.78-1.5,15.96-3.04,32.47-5.21,48.28-1.33,9.7-2.38,17.36-5.19,20.98-1.64,2.11-5.12,4.51-17.7,4.18-13.78-.35-29.2-2.08-44.12-3.76-6.71-.75-13.65-1.53-20.18-2.15ZM496.96,354.76c-11.26,6.06-23,12.75-34.35,19.23-27.65,15.77-56.24,32.08-84.06,42.94-.53.21-1.12.44-1.75.69-3.25,1.29-10.83,4.29-13.63,4.29-.03,0-.05,0-.08,0-8.89-.2-29.77-18.43-38.68-26.22-1.77-1.55-3.36-2.93-4.71-4.08-46.58-39.62-92.86-82.17-137.62-123.32-13.1-12.04-26.64-24.49-39.94-36.64-7.58-6.93-15.53-13.9-23.21-20.65-12.28-10.78-24.98-21.94-36.58-33.2-.81-.79-1.62-1.56-2.41-2.31-.04-.04-.08-.07-.11-.11,103.43,10.7,208.53,21.99,310.19,32.91,103.94,11.16,211.2,22.69,317.15,33.63-63.24,33.86-130.55,69.99-210.2,112.83Z"/>
</svg>