<?xml version="1.0" encoding="UTF-8"?>
<svg id="_レイヤー_1" data-name="レイヤー_1" xmlns="http://www.w3.org/2000/svg" version="1.1" viewBox="0 0 663.77 663.77">
  <!-- Generator: Adobe Illustrator 29.8.4, SVG Export Plug-In . SVG Version: 2.1.1 Build 6)  -->
  <path d="M468.71,152.55c31.97,0,63.06,6.67,89.9,19.3,27.94,13.14,50.36,32.53,64.86,56.08,15.57,25.3,20.13,53.41,13.17,81.3-6.76,27.1-24,51.48-48.55,68.66-10.75,7.52-15.68,20.6-12.56,33.33l2.03,8.27c.95,3.88-3.05,7.12-6.65,5.37l-29.17-14.21c-4.28-2.09-9.07-3.19-13.89-3.19-7.25,0-13.63,1.33-19.26,2.49-2.76.57-5.36,1.11-7.52,1.36-10.9,1.27-21.67,1.92-32.02,1.92-12.23,0-24.04-.89-35.34-2.67-2.61-.41-4.27-3.04-3.51-5.57.37-1.21.71-2.44,1.03-3.69,19.45-75.18-14.32-153.63-83.09-199.41-3.34-2.22-3.58-6.99-.49-9.54,7.57-6.25,16.26-12.1,25.56-17.11,27.09-14.61,61-22.66,95.49-22.66M468.71,128.55c-37.86,0-75.42,8.56-106.89,25.54-19.17,10.34-39.34,25.64-52.42,43.67-2.71,3.73-1.37,9.02,2.77,11.05,68.92,33.89,116.19,107.76,95.83,186.46-2.09,8.08-5.64,15.63-8.72,23.35-1.65,4.14.66,8.78,4.94,10,21.05,6,42.93,8.59,64.83,8.59,11.64,0,23.28-.73,34.81-2.08,8.04-.94,16.02-3.69,24.02-3.7h0c1.17,0,2.32.27,3.37.78l45.76,22.3c2.93,1.43,5.92,2.08,8.82,2.08,12.22,0,22.72-11.54,19.45-24.89l-6.44-26.22c-.74-3.01.46-6.16,3.01-7.94,59.23-41.43,81.64-117.89,42.06-182.2-35.81-58.19-106.01-86.79-175.2-86.79h0Z"/>
  <g>
    <path d="M254.12,208.13C144.92,181.05-9.98,238.5.51,370.74c3.12,39.38,29.24,75.2,59.85,99.02,4.2,3.27,6.12,8.69,4.82,13.86l-8.74,34.93c-2.76,11.01,8.58,20.24,18.8,15.31l54.77-26.38c2.69-1.3,5.74-1.66,8.65-1.02,84.79,18.81,195.41-7.07,238-88.53,51.02-97.57-29.84-186.82-122.54-209.8ZM262.46,425.78c1.02,5.23-.11,11.14-5.26,13.69-11.06,5.47-16.88-4.99-23.31-12.13-44.52,22.23-99.17,2.24-109.1-48.88-9.47-48.74,14.98-94.59,67.5-97.9,26.16-1.65,52.93,10.13,66.37,33.03,16.89,28.78,15.02,72.58-7.09,98.32-.36,2.02,10.27,10.67,10.89,13.87Z"/>
    <path d="M201.03,302.22c-42.33-3.1-59.61,36.45-52.07,73.07,6.46,31.41,39.31,48.21,68.53,34.95-4.4-7.75-23.01-22.28-21.6-31.01,1.24-7.63,8.61-10.73,15.66-8.53,2.35.73,7.44,6.45,9.46,8.54,3.26,3.36,9.87,12.87,12.97,15.04,1.41.99.53,1.2,2.03,0,1.49-1.19,5.46-9.53,6.25-11.76,11.6-32.6-1.94-77.43-41.24-80.31Z"/>
  </g>
  <path d="M551.61,316.36l-60.24-.15c-1.6.38-7.39,25.09-13.7,29.5-10.3,7.21-23.37-2.45-19.47-14.47,15.95-34.97,25.86-75.42,42.04-109.95,5.01-10.7,10.57-15.77,23.01-15.07,8.19.46,12.11,3.85,16.48,10.51l44.29,114.71c4.55,11.25-8.57,20.36-18.24,15.24-7.24-3.83-11.29-22.77-14.17-30.32ZM542.7,294.25l-21.49-60.99-22.5,60.99h44Z"/>
</svg>