<?xml version="1.0" encoding="UTF-8"?>
<svg id="_レイヤー_1" xmlns="http://www.w3.org/2000/svg" version="1.1" viewBox="0 0 559.73 559.73" fill="#FFFFFF">
  <!-- Generator: Adobe Illustrator 29.8.4, SVG Export Plug-In . SVG Version: 2.1.1 Build 6)  -->
  <g>
    <polygon points="458.71 262.04 449.19 258.67 352.03 224.3 342.5 220.93 334.71 242.97 450.92 284.08 458.71 262.04"/>
    <path d="M329.04,259l-13.01-4.6-72.26,204.25c-7.57,21.39,3.64,44.87,25.03,52.44l64.75,22.91c21.39,7.57,44.87-3.64,52.44-25.03l72.26-204.25-13.01-4.6-116.21-41.11h.01ZM295.16,383.34c-1.42,2.47-3.55,5.04-5.17,4.35l-1.1-1.11c.23-6.23,1.99-13.04,4.92-18.98.89-1.81,2.05-3.71,3.4-4.23,2.35-.91,3.28,2.95,2.84,6.37-.59,4.68-2.51,9.47-4.89,13.6h0ZM266.47,475.09c-1.65,3.33-3.95,6.61-6.41,7.31-2.98.85-4.97-2.61-5.07-6.74-.09-4.13,1.24-8.71,2.61-13.06,4.11-13.07,8.79-26.15,14.27-38.66,2.9-6.62,7.82-19.81,12.6-24.28,6.47-6.05,2.76,6.25,1.12,12.13-4.39,15.8-9.01,31.58-13.52,47.37-1.55,5.42-3.13,10.94-5.61,15.95v-.02Z"/>
    <polygon points="476.22 182.25 458.28 175.91 386.27 150.43 379.07 147.88 357.7 208.28 454.85 242.65 476.22 182.25"/>
    <path d="M518.48,46.4c-8.48,9.8-22.51,21.14-44.95,27.99-23.86,7.29-39.3,5.69-48.7,2.36-5.32-1.88-8.52-4.22-10.4-5.9l-22.49,63.56,84.79,30s41.75-118.01,41.75-118.01Z"/>
    <path d="M470.76,65.34c37.51-11.47,48.64-36.21,50.24-40.29-15.11-2.76-64.67-7.52-101.47,36.93l.64,1.38c1.79,1.8,14.72,12.94,50.59,1.98Z"/>
  </g>
  <path d="M45.67,250.87l100.5,134.31,102.36-76.59-100.5-134.31c-11.52-15.4-33.34-18.54-48.74-7.02l-46.6,34.87c-15.4,11.52-18.54,33.34-7.02,48.74h0ZM184.22,255.98c.86,1.48,1.65,3.19,1.38,4.38-.46,2.08-3.62.92-5.83-.99-3.02-2.62-5.49-6.22-7.29-9.84-1.07-2.16-1.88-4.87-.63-5.69l1.3-.25c4.28,3.09,8.25,7.54,11.06,12.4h0ZM121.31,186.15c-1.57-2.73-2.8-5.89-2.14-7.95.8-2.5,4.18-2.28,7.14-.4s5.56,4.97,7.98,7.98c7.28,9.05,14.3,18.49,20.54,28.25,3.3,5.15,10.28,14.83,11.19,20.31,1.22,7.41-5.7-.99-9.08-4.91-9.07-10.53-18.02-21.21-27.03-31.81-3.09-3.64-6.24-7.35-8.6-11.46h0Z"/>
</svg>