<?xml version="1.0" encoding="UTF-8"?>
<svg id="_レイヤー_1" xmlns="http://www.w3.org/2000/svg" version="1.1" viewBox="0 0 764.56 764.56">
  <!-- Generator: Adobe Illustrator 29.8.4, SVG Export Plug-In . SVG Version: 2.1.1 Build 6)  -->
  <path d="M599.31,690.84l-42.9,2.1c-1.11,5.25-3.01,10.4-5.24,15.25s-9.92,19.15-13.2,22.3c-5.61,5.39-16.24,1.86-16.59-6.24-.16-3.73,10-17.99,12.4-23.45,9.23-20.93,11.03-44.79,9.57-67.51-.5-7.74-5.69-26.29-3.28-32.2,1.21-2.96,5.16-5.64,8.48-5.09,7.52,1.26,7.95,8.74,9.29,14.79,4.66,20.94,4.2,42.78,2.46,64.04,18.29-.31,39.27-.83,57.01-5.49,1.48-.39,6.36-1.13,5.97-2.94-9.82-27.96-16.32-57.25-27.22-84.81-7.13-18.02-12.08-27.46-28.82-38.18-20.75-13.28-47.32-19.4-70.41-27.59,1.72,7.31-1.02,9.78-4.7,15.33-19.29,29.06-56.89,65.06-86.5,83.5-12.51,7.79-20.78,14.51-35.62,7-30.52-15.45-71.57-55.49-92.09-82.91-4.97-6.64-12.02-14.19-10.61-22.89-22.03,7.55-45.25,13.33-65.67,24.82-18.53,10.44-24.88,19.78-32.81,39.19-11.51,28.17-17.83,59.42-28.52,87.97,20.91,5.01,42.44,7.43,64,7-3.49-20.72-2.15-44.48,2.47-65.03,1.33-5.92,1.69-13.22,9.14-13.95,2.99-.3,7.78,2.41,8.87,5.01,2.02,4.79-2.82,24.7-3.47,31.49-2.34,24.7.1,51.2,11.47,73.51,3.34,6.55,14.75,18.16,7.04,25-3.87,3.43-10.47,2.76-13.96-1.08-7.89-8.68-14.57-25.56-17.66-36.84l-42.39-2.11c-1.22.13-.33,22.01-.47,24.55-.22,4.04-.86,14.85-3.35,17.14-5.31,4.88-14.58.37-15.63-6.24-.9-5.64,1.09-36.89-.16-38.35-9.96-2.67-24.94-3.3-24.98-16.6-.03-8.22,9.83-35.5,12.81-45.26,6.77-22.15,16.15-57.59,28.86-76.14,28.41-41.47,104.31-47.39,147.28-70.72,13.93-7.56,17.03-15.59,18.06-31.29-27.49-13.37-50.17-37.25-63.1-64.93-37.17,1.62-65.38-43.36-47.01-75.83,2.45-4.33,5.75-6.77,8.17-10.85-13.01-42.25-10.52-86.39,10.47-125.51,28.69-53.46,87.2-84.85,147.52-83.99-1.2-2.12-3.55-1.8-4.54-4.94-3.48-11,14.03-26.3,22.63-31.47,41.96-25.24,106.37-5.48,120.94,42.9,5.16,17.14,3.96,42.37-11.04,54.04,28.61,37.71,39.79,81.82,30.75,128.71-.72,3.75-5.83,19.46-5.5,21.15.29,1.48,5.78,5.68,7.21,7.68,19.04,26.64-2.79,73.19-34.2,77.68-2.88.41-9.74-.33-11.28.72-.76.52-7.22,13.49-8.93,16.07-13.3,20.08-32.2,37.92-53.87,48.62-1.66,26.45,21.26,33.63,41.59,41.6,39.4,15.44,101.44,25.26,125.06,62.94,14.09,22.49,31.8,83.25,38.46,110.55,1.57,6.42,3.61,10.33-1.42,16.11-4.93,5.67-14.89,6.67-21.71,8.79-1.19,1.86.58,31.63-.11,37.39-.91,7.67-9.54,12.79-15.47,7.42-.46-.42-3.55-5.12-3.55-5.45v-36.5.02ZM501.29,135.84c30.18-62.5-61.88-106.72-102.98-58.5-2.7,3.17-3.47,7.98-8,10,41.74,1.34,81.37,19.47,110.98,48.5ZM520.29,289.84c23.25-69.67-10.68-143.2-77.31-172.18-112.21-48.8-236.09,48.19-199.7,169.71.38,1.28-.75,1.65,1.45,1.42,51.75-13.31,104.29-33.82,145.58-68.44,14.59-12.23,20.41-22.38,32.01-35.99,8.62-10.1,19.59-3.11,14.52,8.52s-23.14,30.12-32.53,38.47c-38.05,33.87-87.97,54.78-136.6,68.44.25,24.76,2.25,49.01,12.11,72.02,21.78,50.78,82.29,88.08,136.83,65.89,58.49-23.79,81.83-78.79,80.65-139.37-4.44-5.35-10.81-9.99-15.52-15.48-12.57-14.64-29.24-48.73-31.25-67.78-.99-9.4,8.13-14.05,13.24-7.2,2.92,3.91,7.21,21.04,9.76,27.25,8.85,21.55,23.93,46.47,46.75,54.74v-.02ZM251.3,304.84c-37.14,5.08-21.78,57.48,8,62-6.02-20.11-8.15-41.05-8-62ZM505.32,366.84c28.32-3.67,44.71-56.78,8.5-61.01-.33,20.69-2.73,41.13-8.5,61.01ZM419.3,455.85c-24.49,9.26-49.48,9.37-73.99,0,.26,21.7-16.48,37.32-36,43.01,12.63,18.21,27.9,36.23,44.47,51.02,4.15,3.7,23.56,19.47,27.51,20.57,2.39.66,4.41-1.57,6.34-2.79,17.44-11.02,40.01-32.8,53.2-48.8,2.22-2.7,12.85-16.45,13.44-18.57s-.5-1.16-1.35-1.53c-19.02-8.16-33.65-20.57-33.61-42.91h-.01ZM293.22,506.91c-1.11-.83-19,5.85-17.91,6.92,2.1-.17,3.11.7,4.57,1.94,5.48,4.66,15.98,21.24,21.92,28.08,18.57,21.41,48.19,49.62,73.22,62.78,7.84,4.12,7.2,3.58,14.97-.63,33.61-18.18,66.35-52.56,89.14-82.86,2.69-3.57,3.83-9.36,9.18-9.32,1.09-1.08-14.35-6.68-16.03-6.48-21.38,29.84-48.33,60.59-79.65,80.31-13.05,8.22-16.47,2.69-27.63-5-27.17-18.72-50.94-46.19-70.55-72.48-.69-.93-.85-2.2-1.22-3.26h-.01Z"/>
  <path d="M638.07,390.08c-4.54-1.15-9.01-2.82-13.55-3.94-4.86-1.2-21.03-2.78-23.1-5.91s-.51-6.63,2.64-8.13c6.79-3.24,28.15-4.5,33.24-8.76,3.88-3.25,6.02-28.2,8.79-34.21,1.67-3.62,5.49-4.46,8.8-2.33,4.89,3.15,5.8,30.76,10.94,36.06,3.73,3.85,26.38,6.48,32.73,9.27,3.57,1.57,5.01,4.9,2.82,8.3-1.95,3.03-17.38,4.78-22.07,5.92-2.84.69-12.47,2.57-13.98,4.02-3.74,3.58-6.03,26.34-8.48,32.52-1.32,3.34-4.87,5.17-8.09,3.05-4.64-3.06-6.75-29.65-10.67-35.84l-.02-.02Z"/>
  <path d="M447.63,609.16c1.56-1.7,3.94-2.18,6.12-2.38,15.13-1.43,46.93-1.37,62.11.02,5.55.51,8.56,2.95,9.36,8.64.7,4.96.7,26.91-1.14,30.68-1.32,2.7-4.24,4.65-7.25,4.75-19.99-1.44-42.39,1.83-62.07.02-5.28-.48-8.82-3-9.48-8.52-.7-5.95-.67-21.06,0-27.04.21-1.85,1.12-4.82,2.35-6.16h0ZM510.31,621.84h-50v14h50v-14Z"/>
  <path d="M585.04,433.09c4.32-.71,6.9-.37,10.59,1.93,15.58,9.67,1.45,33.39-15.03,24.03-11.3-6.42-8.34-23.87,4.44-25.96Z"/>
</svg>