<?xml version="1.0" encoding="UTF-8"?>
<svg id="_レイヤー_1" xmlns="http://www.w3.org/2000/svg" version="1.1" viewBox="0 0 840.94 840.94" fill="#FFFFFF">
  <!-- Generator: Adobe Illustrator 29.8.4, SVG Export Plug-In . SVG Version: 2.1.1 Build 6)  -->
  <path d="M756.84,153.38c6.9,82.94,16.63,166.31,39.08,246.5.03,17.19-23.55,17.39-35.63,16.55-12.76-.89-34.86-15.44-46.37-22.63-86.83-54.23-157.04-138.68-176.08-241.42h-111c2.68,7.65.19,16.78.1,24.39-.02,1.9.98,4.41.97,7.12-.02,3.65-2.21,6.29-.33,10.26,1.06,2.24,6.76,5.22,8.72,8.28,1.66,2.59,1.91,6.73,3.57,8.43s10.72,5.84,13.89,8.11c8.15,5.84,32.34,27.98,33.65,37.36.9,6.37-4.89,12.34-11.04,13.08-21.19,2.55-53.62.04-76.06-.07-4.03-.02-7.86.04-11.92,0-7.74-.08-17.72.93-25.06.07-8.51-1-11.93-9.97-8.31-17.36,6.07-12.41,26.35-29.35,37.91-37.08,2.24-1.49,6.31-2.65,7.88-4.12,2.4-2.25,2.23-7.79,5.64-11.36,2.19-2.29,7.4-3.68,7.4-4.1v-43.01h-111c-18.74,104.87-93.33,192.17-182.69,245.81-12.31,7.39-27.55,17.4-41.76,18.24-12.26.73-31.71.46-33.47-15.44,22.54-80.52,32.16-164.31,38.92-247.6h-28.5c-.89,0-5.6-2.51-6.52-3.48-5.37-5.58-2.91-14.32,4.19-16.86,244.8-1.25,490.01-.82,734.87-.22,6.18,3.1,9.66,10.06,4.96,16.07-1.15,1.47-6.07,4.49-7.51,4.49h-28.5ZM98.09,390.13c2.9,2.93,6.41-.34,8.76-2.24,49.43-39.95,93.2-115.83,115.01-174.99,4.84-13.12,12.62-33.91,14.74-47.26,1.57-9.85-6.93-12.66-12.98-5.99-20.79,73.97-56.08,144.46-106.26,202.74-3.62,4.21-20.17,20.03-20.49,23.55-.11,1.19.39,3.33,1.22,4.18h0ZM742.69,390.23c1.04-.65,1.76-6.17.22-7.43-60.25-61.61-102.19-139.77-125.3-222.7-2.44-5.06-11.61-5.19-13.36.23-1.29,4.01,4.69,22.57,6.32,27.81,20.86,67.15,66.69,152.29,121.25,197.75,2.49,2.07,7.57,6.41,10.87,4.34ZM161.58,158.56c-1.07.22-2.49,1.02-3.28,1.78-2.83,2.76-4.63,20.86-5.77,26.23-12.92,60.86-32.79,122.26-63.52,176.48-2.88,5.09-13.71,19.57-14.77,23.32-.97,3.45,1.6,6.78,5.12,6.61s15.32-17.83,17.89-21.68c34.23-51.16,63.44-131.51,71.42-192.58.87-6.67,4.54-22.51-7.1-20.16h.01ZM682.56,160.66c-3.8-3.79-10.73-2.4-11.65,3.28-1.21,7.51,3.52,27.23,5.24,35.63,11.14,54.55,31.59,112.91,60.52,160.48,3.74,6.15,19.08,30.53,24.45,32.59,4.37,1.67,6.58-2.64,5.55-6.53-39.49-59.14-62.02-127.49-77.52-196.54-1.2-5.35-4.05-26.37-6.59-28.91h0Z"/>
  <path d="M357.88,450.34c20.23-.01,40.35,3.24,60.46,5.04,64.01,5.73,128.04,11,192,17,29.9,2.8,98.61-.95,100.11,42.35.58,16.83.89,43.8-.58,60.2-1.03,11.47-7.8,15.55-17.53,19.47-29.24,11.8-72.15,26.6-102.52,34.48-12.21,3.17-24.88,4.45-37.49,4.5-123.71-16.25-248.17-26.63-372-42-10.35-1.28-34.88-2.99-42.44-8.56-4.3-3.17-7.33-9.8-7.96-15.04-1.67-13.94-1.46-47.63,0-61.77,2.47-23.72,20.79-27.88,39.86-34.16,1.7-.56,6.06-.01,3.38-2.55-9.01-8.52-19.89-16.57-16.74-31.04,6.09-27.98,56.54-25.41,77.62-29.13,28.98-5.12,43.04-18.1,74.72-5.21,17.65,7.18,45.67,26.56,49.08,46.42h.02ZM183.98,437.24c.43.69,12.27,5.17,14.88,6.62,11.55,6.41,29.74,25.54,39.16,27.84,8.09,1.97,19.57-1.17,27.83-2.8,16.36-3.23,53.72-11.26,67.37-18.63,8.45-4.57,6.51-6.78.63-12.39-9.97-9.52-30.73-23.08-44.52-24.48-19.01-1.92-38.04,7.77-56.25,10.73-11.48,1.87-22.85,1.01-34.45,3.55-2.09.46-14.08,3.97-14.62,4.87-.43.72-.45,4.03-.03,4.7h0ZM352.46,463.67c-39.31,16.75-100.1,40.72-142.16,26.74-5.16-1.72-18.87-9.28-22.69-8.86-3.03.33-24.6,7.71-27.78,9.31-2.03,1.02-5.69,3.27-4.93,5.88.93,3.23,18.02,5.03,21.57,5.5,124.71,16.6,251.11,22.86,375.88,38.92,39.6-3,80.61-19.06,118.02-32.78,7.75-2.84,22.13-5.42,8.17-12.21s-27.02-5.4-41.18-6.82c-94.86-9.54-189.95-16.66-284.89-25.7v.02Z"/>
  <path d="M751.94,429.48c7.91-.38,15.45,1.41,23.44.94,6.69-.39,18.24-6,21.19.73,10.04,61.95,16.5,124.92,33.55,185.45,2.48,8.82,9.65,24.89,10.63,32.37,1.04,7.95-2.05,13.8-10.09,15.73-18.2,4.37-67.5-3.53-80.86-17.77-8.17-8.7-9.46-34.68-9.99-47.01-1.73-39.79-.44-86.5,4.05-126.04,1.7-14.97,4.38-29.85,8.09-44.41h-.01ZM779.83,613.38c-.9-14.22,1.08-28.36,1.05-42.54-.05-24.48-2.03-49.47-3.08-73.92-.5-11.61.57-26.94-.91-38.09-.39-2.89-1.28-4.51-4.46-4.43-6.8.17-4.28,11.44-4.6,16.47-2.42,38.66,1.05,77.39,6.29,115.74l5.71,26.77h0Z"/>
  <path d="M88.7,429.52c3.61,10.08,5.51,20.87,7,31.5,6.17,43.95,6.82,95.44,5.14,139.92-.45,12.05-1.12,34.32-8.17,43.76-12.27,16.43-59.02,22.59-78.32,20.66-7.72-.77-14.97-5.55-14.31-14.2s9.74-30.29,12.51-40.57c15.58-57.69,22.45-117.94,30.97-177.03,1.91-9.84,13.53-3.65,20.78-3.15,8.19.57,16.27-.91,24.4-.89h0ZM71.6,455.63c-2.07-2.1-5.49-1.39-6.53,1.48-2.43,6.78.12,17.63-2.22,24.78-1.58,43.84-2.49,87.56-2,131.48l6.68-30.8c4.27-33.04,7.25-67.37,6.34-100.73-.11-4.19-1.02-24.95-2.27-26.22h0Z"/>
  <path d="M575.84,643.38v49.5c0,2.94-5.87,10.68-8.49,12.51-8.98,6.27-26.11,3.42-31.34-6.67-.43-.82-2.17-4.51-2.17-4.83v-51.5c14.05,2.13,27.89,2.23,42,1h0Z"/>
  <path d="M160.84,600.88c.22-.73,1.59-1.57,2.49-1.53l38.57,4.47c1.75,1.22.86,27.49.9,32.1.02,2.4,1.12,4.6,1.12,6.95-.02,18.82-20.84,29.23-35.58,17.51-3.21-2.55-7.5-9.51-7.5-13.5v-46h0Z"/>
  <path d="M685.84,655.88c-1.91,9.38-14.47,15.18-23.38,14.4-25.23-2.21-18.18-30.63-18.02-48.02,12.36-2.12,27.67-11.57,39.34-13.49,1.09-.18,2.07.68,2.07,1.1v46h-.01Z"/>
  <path d="M439.84,280.38c-6.33,22.42-32.69,22.25-39,0h39Z"/>
</svg>