<?xml version="1.0" encoding="UTF-8"?>
<svg id="_レイヤー_1" data-name="レイヤー_1" xmlns="http://www.w3.org/2000/svg" version="1.1" viewBox="0 0 519.82 565.67">
  <!-- Generator: Adobe Illustrator 29.8.4, SVG Export Plug-In . SVG Version: 2.1.1 Build 6)  -->
  <defs>
    <style>
      .st0 {
        fill: none;
        stroke: #ebae9f;
        stroke-linecap: round;
        stroke-linejoin: round;
        stroke-width: 18px;
      }
    </style>
  </defs>
  <path class="st0" d="M387.47,535.23c-.08-1.9,83.18-36.72,55.63-81.49-24.94-40.54-41.8-51.28-52.55-90.79-10.12-37.16,1.78-64.28-13.13-149.54-10.78-61.67-52.18-106.32-105.53-135.67-38.2-21.02-105.53-18.93-126.58-5.07"/>
  <path class="st0" d="M119.66,80.19c-22.71,8.05-65.56,37.3-85.68,72.49-27.97,48.91-23.22,101.73-10.02,118.38"/>
  <path class="st0" d="M75.56,152.67c-2.23,2.37-7.58,5.17-9.7,7.06-21.47,19.15-33.13,42.91-33.58,71.94-.19,12.36,1.6,24.5,4.15,36.48,2.41,11.3-1,21.27-5.7,30.99-4.88,10.1-11.88,18.85-18.91,27.55-7.45,9.23-9.52,12.68,4.51,19.94,4.31,2.23,9.05,3.49,13.52,5.45,4.23,1.85,5.95,4.64,6.01,9.1.06,4.88-.91,9.65-1.2,14.49-.27,4.39,1.01,7.31,4.64,9.53,2.64,1.62,4.43,5.55,7.55,5.55s6.73-1.41,11.65-1.09"/>
  <path class="st0" d="M75.56,152.67c-.16,3.41,3.65,13.08,4.74,16.5,7.69,24.16,20.87,45,37.43,64.07,16.98,19.55,37.24,34.75,59.59,47.42,13.19,7.47,27.35,12.72,41.49,18.01"/>
  <path class="st0" d="M46.81,391.17c-1.72,1.94-2.39,8.74,2.4,12.62,5.79,4.69,6.63,11.81,7.15,18.87.38,5.19.08,10.48,1.94,15.51,4.16,11.17,10.68,14.75,23.01,15.43,17.36.97,33.97-3.36,50.5-7.94,5.25-1.45,32.4-12.58,40.5-12"/>
  <path class="st0" d="M149.81,443.17c1.22,6.89,6.26,11.77,9.68,17.39,9.18,15.05,16.44,30.73,19.83,48.11,3.34,17.17,3.52,34.19-2.01,51"/>
  <path class="st0" d="M513.82,47.85c-9.43-13.26-22.5-21.95-37-28.45-14.96-6.71-30.76-10.69-47.12-12.45-16-1.72-31.8-1.53-47.05,4.31-5.39,2.06-10.23,5.22-13.05,10.47-4.17,7.77-1.3,18.26,5.98,25.24,3.22,3.09,10.38,9,23.78,17.64s29.66,14.42,46.21,16.75c8.15,1.15,16.35,2.26,24.35-1.37,7.22-3.27,8.67-9.09,3.76-15.41-4.33-5.58-10.57-8.29-16.76-10.21-15.32-4.77-36.78-7.89-46.11-6.94-19.33,1.98-37.25,7.58-37.37,23.61-.08,10.13,6.3,20.8,15.04,28.9,8.74,8.1,27.9,10.79,28.96,3.57.42-2.85-5.02-11.26-17.53-12.65-12.51-1.39-18.13,2.45-19.42,9.71-1.87,10.47,6.33,18.77,17.72,24"/>
</svg>