<?xml version="1.0" encoding="UTF-8"?>
<svg id="_レイヤー_1" data-name="レイヤー_1" xmlns="http://www.w3.org/2000/svg" version="1.1" viewBox="0 0 631.63 631.63">
  <!-- Generator: Adobe Illustrator 29.8.4, SVG Export Plug-In . SVG Version: 2.1.1 Build 6)  -->
  <path d="M442.69,515.04c-3.82,0-7.67-.86-11.29-2.6l-54.77-26.38c-.17-.08-.36-.11-.52-.07-45.56,10.1-97.11,7.55-141.43-6.99-50.83-16.68-88.99-47.09-110.36-87.95-14.52-27.78-19.91-56.23-16.02-84.56,3.48-25.34,14.71-50.36,32.46-72.35,4.34-5.37,12.21-6.21,17.58-1.87,5.37,4.34,6.21,12.21,1.87,17.58-18.48,22.88-44.83,70.15-13.74,129.62,31.73,60.68,104.24,87.66,172.13,87.66,17.97,0,35.6-1.89,52.09-5.54,5.61-1.25,11.57-.55,16.78,1.96l54.77,26.38c.23.11.51.25.95-.11.44-.36.36-.66.3-.91l-8.74-34.93c-2.49-9.94,1.15-20.44,9.27-26.76,31.98-24.88,52.56-58.58,55.06-90.14,2.62-33.1-5.78-62.52-24.99-87.45-4.21-5.47-3.2-13.32,2.27-17.53,5.47-4.21,13.32-3.2,17.53,2.27,23.11,29.99,33.24,65.21,30.11,104.69-3.09,39.02-26.65,78.35-64.63,107.9-.32.25-.46.61-.37.96l8.74,34.93c2.46,9.85-.89,19.95-8.76,26.36-4.75,3.87-10.48,5.86-16.29,5.86Z"/>
  <g>
    <path d="M324.38,122.09l10.68,32.88c1.36,4.19,5.26,7.02,9.67,7.02h34.58c7.71,0,10.91,9.86,4.68,14.39l-27.97,20.32c-3.56,2.59-5.05,7.18-3.69,11.37l10.68,32.88c2.38,7.33-6.01,13.42-12.24,8.89l-27.97-20.32c-3.56-2.59-8.39-2.59-11.95,0l-27.97,20.32c-6.23,4.53-14.62-1.56-12.24-8.89l10.68-32.88c1.36-4.19-.13-8.78-3.69-11.37l-27.97-20.32c-6.23-4.53-3.03-14.39,4.68-14.39h34.58c4.4,0,8.31-2.84,9.67-7.02l10.68-32.88c2.38-7.33,12.75-7.33,15.13,0Z"/>
    <g>
      <path d="M429.87,165.32l8.26,25.41c1.05,3.24,4.07,5.43,7.47,5.43h26.71c5.95,0,8.43,7.62,3.61,11.12l-21.61,15.7c-2.75,2-3.9,5.55-2.85,8.78l8.26,25.41c1.84,5.66-4.64,10.37-9.46,6.87l-21.61-15.7c-2.75-2-6.48-2-9.23,0l-21.61,15.7c-4.82,3.5-11.3-1.21-9.46-6.87l8.26-25.41c1.05-3.24-.1-6.78-2.85-8.78l-21.61-15.7c-4.82-3.5-2.34-11.12,3.61-11.12h26.71c3.4,0,6.42-2.19,7.47-5.43l8.26-25.41c1.84-5.66,9.85-5.66,11.69,0Z"/>
      <path d="M215.46,165.32l8.26,25.41c1.05,3.24,4.07,5.43,7.47,5.43h26.71c5.95,0,8.43,7.62,3.61,11.12l-21.61,15.7c-2.75,2-3.9,5.55-2.85,8.78l8.26,25.41c1.84,5.66-4.64,10.37-9.46,6.87l-21.61-15.7c-2.75-2-6.48-2-9.23,0l-21.61,15.7c-4.82,3.5-11.3-1.21-9.46-6.87l8.26-25.41c1.05-3.24-.1-6.78-2.85-8.78l-21.61-15.7c-4.82-3.5-2.34-11.12,3.61-11.12h26.71c3.4,0,6.42-2.19,7.47-5.43l8.26-25.41c1.84-5.66,9.85-5.66,11.69,0Z"/>
    </g>
  </g>
  <path d="M403.44,318.45h-219.75c-5.52,0-10-4.48-10-10s4.48-10,10-10h219.75c5.52,0,10,4.48,10,10s-4.48,10-10,10Z"/>
  <path d="M438.54,383.63h-219.75c-5.52,0-10-4.48-10-10s4.48-10,10-10h219.75c5.52,0,10,4.48,10,10s-4.48,10-10,10Z"/>
</svg>