<?xml version="1.0" encoding="UTF-8"?>
<svg id="_レイヤー_1" data-name="レイヤー_1" xmlns="http://www.w3.org/2000/svg" version="1.1" viewBox="0 0 149.18 121.73">
  <!-- Generator: Adobe Illustrator 29.8.4, SVG Export Plug-In . SVG Version: 2.1.1 Build 6)  -->
  <defs>
    <style>
      .st0 {
        fill: none;
        stroke: #ebae9f;
        stroke-linecap: round;
        stroke-linejoin: round;
        stroke-width: 5px;
      }
    </style>
  </defs>
  <path class="st0" d="M96.75,55.86c.67,1.58,1.03,3.21.6,4.92-.96,3.72-3.82,5.9-6.49,8.39-2.28,2.12-10.77,17.12-13.32,21.49-3.04,5.21-6.44,10.18-10.8,14.4-7.22,6.99-15.77,11.58-25.56,13.77-3.96.89-8.01,1.35-12.11,1.4-2.33.03-4.64-.02-6.96-.18-.75-.05-1.48-.28-2.17-.68-1.07-.61-1.54-1.48-1.55-2.66-.03-3.02.88-5.88,1.58-8.75,1.82-7.42,4.82-14.33,9.35-20.52,1.63-2.22,3.52-4.22,5.64-6,.72-.6,6.97-4.85,8.15-5.42,3.31-1.59,6.77-2.52,10.44-2.92,2.99-.32,5.84.02,8.64,1.01,1.47.52,2.69,1.38,2.88,3.11.17,1.55-.83,2.34-2.03,3-1.95,1.07-4.1,1.28-6.24,1.42-4.67.3-9.27-.27-13.8-1.4-.35-.09-7.56-1.86-11.89-4.54-5.94-3.68-10.55-8.36-14.03-14.31-2.71-4.65-4.56-9.66-6.09-14.77-2.78-9.3-4.99-18.75-7.25-28.19-.71-2.95-1.59-5.87-2.01-8.89-.25-1.81-.43-3.62.34-5.4.96-2.22,2.98-2.73,5.05-2.62,3.65.19,6.95,1.58,10.2,3.11,9.44,4.46,18.1,10.18,26.54,16.3,5.84,4.23,11.4,8.81,16.89,13.47,4.44,3.78,8.6,7.88,12.59,12.13,4.01,4.28,7.74,8.82,11.04,13.67,1.58,2.32,2.84,4.85,3.98,7.43.17.38,1.25,3.8,1.37,5.18.25,2.83-.27,6.56-.76,8.26-.84,2.9-2.18,5.6-3.29,8.38-1.84,4.62-3.69,9.23-5.62,13.81-1.58,3.74-2.87,7.59-4.54,11.29-.3.66-.4,1.33-.35,2.04"/>
  <path class="st0" d="M147.63,11.58c.27,1.61-.6,7.76-.85,8.88-2.34,10.36-6.37,20.01-12.36,28.8-6.36,9.33-14.25,17.1-23.89,23.02-3.02,1.85-6.13,3.57-9.46,4.84-.4.15-.83.37-1.62.79"/>
  <path class="st0" d="M118.83,35.64c-4.35-.04-7.79,1.89-10.81,4.85-3.95,3.87-6.85,8.47-9.58,13.21-.02.04-.05.13-.12.24-1.1,1.84-1.35,1.97-3.24,1.3-.52-.19-1.11-.21-1.57-.58"/>
  <path class="st0" d="M84.75,29.64c1.79-.22,2.96.87,4.07,1.99,2.29,2.29,3.47,5.16,4.08,8.27.8,4.09,1,8.21.38,12.36-.08.55-.13,1.15.01,1.67.3,1.09-.21,1.29-1.1,1.21"/>
  <path class="st0" d="M147.63,13.24c-1.28,3.81-5.85,7.07-7.37,8.11-4.75,3.26-8.98,5.26-14.6,7.99-.28.14-.56.1-.84.12"/>
</svg>