<?xml version="1.0" encoding="UTF-8"?>
<svg id="_レイヤー_1" xmlns="http://www.w3.org/2000/svg" version="1.1" viewBox="0 0 750 480.15">
  <!-- Generator: Adobe Illustrator 29.8.4, SVG Export Plug-In . SVG Version: 2.1.1 Build 6)  -->
  <defs>
    <style>
      .st0 {
        fill: #ebae9f;
      }
    </style>
  </defs>
  <path class="st0" d="M410.81,6.66c6.41,6.43,6.83,13.59,6.4,22.18-1.8,35.85-11.3,73.69-13.15,109.85-1.35,7.7-4.36,14.59-11.36,18.64-2.25,1.3-6.7,1.7-7.37,3.63l-33.17,260.32c3.97,1.1,13.06,1.96,15.97,4.54,4.34,3.85,1.63,10.75-3.22,12.71-7.7,3.11-30.72-2.45-40.25-3.23-43.06-3.55-87.45,2.07-129.11,12.93-5.99.36-8.37-6.76-5.47-11.28,1.07-1.67,23.93-8.56,27.67-9.58,18.88-5.14,38.85-8.83,58.42-10.09-14.63-71.35-29.76-142.78-42.95-214.35-10.44-2.91-17.45-7.74-20.77-18.42-9.59-30.86-11.1-69.27-20.19-100.87.11-27.6,35.44-35.5,46.64-9.59l21.26,105.74c-.51,2.82-1.08,6.14-2.25,8.74-2.59,5.74-9.44,7.88-8.67,14.12,15.09,69.21,27,139.1,41.68,208.39.37,1.73.27,3.5.25,5.25,15.34-.14,30.89.04,45.99,2.99l31.8-259.75c-.08-2.24-4.46-3.61-6.19-5.36-6.84-6.91-7.1-13.12-6.65-22.44,1.32-27.25,7.45-59.48,10.92-87.08,1.17-9.32.75-23.37,4.59-31.41,6.8-14.27,27.99-17.82,39.18-6.61v.03ZM389.87,15.52c-3.1.92-5.11,6.44-5.62,9.37-2.74,15.81-3.19,33.68-5.21,49.79-2.33,18.51-7.3,40.93-7.87,59.14-.49,15.69,15.68,15.31,17.76,2.74,6.14-37.11,6.99-75.58,13.27-112.79-.6-6.69-5.75-10.21-12.32-8.26h-.01ZM213.89,73.5c-4.55.99-6.43,5.93-5.73,10.27,7.53,30.36,10.13,64.7,18.49,94.55,1.27,4.54,1.71,7.7,7.26,8.77,7.02,1.36,11.14-3.39,10.26-10.25-6.65-28.97-10.81-58.62-17.47-87.57-1.66-7.23-2.4-18.04-12.81-15.77h0Z"/>
  <path class="st0" d="M433.17,443.3c13.13.45,26.41-.56,39.54-.04,26.74,1.08,54.81,5.19,80.67,12.33,4.73,1.31,19.37,4.93,21.81,8.19,4.74,6.33.25,14.66-7.42,14.44-5.27-.15-18.96-5.13-25.57-6.46-70.68-14.18-145.59-13.97-214.53,8.39-5.58.04-8.48-5.99-5.57-10.43,2.13-3.26,27.68-11.34,33.07-12.92,18.99-5.59,38.58-9.45,58.27-11.73l1.78-1.22c42.23-85.17,84.67-170.23,128.53-254.56,1.25-2.9-1.86-4.67-2.98-7.11-3.29-7.17-3.66-13.27-1.1-20.88l54.3-104.7c17.03-22.36,52.39-4.66,42.06,23.06-12.74,34.22-39.02,69.55-53.05,103.95-4.6,7.92-14.16,13.02-23.24,10.84-42.55,82.52-85.34,165.46-126.58,248.83v.02ZM612.9,61.52c-2.91.28-5.68,2.5-6.93,5.1l-52.39,101.69c-1.15,11.03,9.34,15.87,16.43,7.35l50.33-98.67c4.26-6.24.71-16.26-7.44-15.46h0Z"/>
  <path class="st0" d="M470.17,394.3l8.15-16.33,3.27-2.58c74.68,9.59,148.36,28.59,217.26,58.74,12.91,5.65,34.62,14.62,45.65,22.35,9.83,6.89,5.59,18.4-5.57,18.65-83.6-43.06-174.95-70.83-268.76-80.82h0Z"/>
  <path class="st0" d="M256.12,377.36l4.05,18.93c-77.12,11.43-152.88,33.12-223.36,66.16-5.98,2.8-22.79,13.24-27.87,12.67-10.02-1.11-12.23-13.11-3.46-19.01,11.68-7.86,34.49-17.16,48.02-22.98,64.13-27.59,133.42-46.48,202.63-55.77h0Z"/>
  <path class="st0" d="M150.36,309.51c-1.61,4.29-4.53,26.34-6.85,27.87-1.79,1.19-4.17,1.27-5.91,0-3.77-2.75-5.23-22.66-7.65-27.85-4.83-3.29-28.31-4.14-29.64-8.94-.52-1.89.23-4.78,2.11-5.62,4.57-2.04,25.12-4.18,27.26-6.67,2.88-5.4,4.08-25.27,7.54-28.46,2.65-2.45,6.46-.92,7.71,2.21,1.69,4.22,3.94,25.03,6.23,26.77,5.53,2.7,24.36,3.66,27.6,7.39,1.68,1.94,2.11,3.45.49,5.67-2.76,3.77-23.65,4.68-28.88,7.63h0Z"/>
  <path class="st0" d="M657.38,244.09c4.73,2.78,20.51,3.04,22.86,6.68,5.7,8.79-19.21,7.75-22.85,10.78-3.14,3.9-3.14,22.4-6.91,23.63-8.98,2.94-8.07-18.2-10.45-23.74-4.62-1.89-23.8-2.94-24.71-7.77-1.29-6.85,20.19-6.73,24.32-10.36,2.47-4.58,2.65-19.64,5.53-22.46,9.23-9.03,9.65,20.69,12.2,23.25h0Z"/>
  <path class="st0" d="M138.92,191.07c-2.22,2.13-17.9,3.11-21.79,4.7-2.92,4.03-2.46,20.25-5.95,22.05-9.3,4.8-7.78-17.63-11.18-22.35-3.67-.77-21.05-2.95-22.35-5.14-1.52-2.56-.79-4.86,1.91-6.12,3.48-1.61,19.23-3.02,20.42-4.08,2.16-4.32,2.75-23.85,8.68-23.85,7.82,0,3.63,21.04,11.03,24,3.49,1.39,27.33,3.02,19.23,10.79h0Z"/>
  <path class="st0" d="M438.16,371.31c.81.7-8.46,18.42-9.65,18.83l-60.34-1.84,3.61-19.05,66.38,2.06Z"/>
  <polygon class="st0" points="331.16 369.31 329.11 389.25 298.21 391.26 294.16 372.32 331.16 369.31"/>
  <path class="st0" d="M592.92,290.52c20.25-2.92,20.95,28.98-.2,25.72-13.32-2.06-14.39-23.61.2-25.72Z"/>
  <path class="st0" d="M380.82,116.52c5.89-.54,9.13,10.28.77,10.77-7.87.46-6.79-10.22-.77-10.77Z"/>
</svg>